<?xml version="1.0" standalone="no"?>
<!DOCTYPE svg PUBLIC "-//W3C//DTD SVG 20010904//EN"
 "http://www.w3.org/TR/2001/REC-SVG-20010904/DTD/svg10.dtd">
<svg version="1.0" xmlns="http://www.w3.org/2000/svg"
 width="1026.000000pt" height="1026.000000pt" viewBox="0 0 1026.000000 1026.000000"
 preserveAspectRatio="xMidYMid meet">
<metadata>
Created by potrace 1.11, written by Peter Selinger 2001-2013
</metadata>
<g transform="translate(0.000000,1026.000000) scale(0.100000,-0.100000)"
fill="#000000" stroke="none">
<path d="M4635 9679 c-1052 -88 -1933 -459 -2709 -1140 -132 -115 -396 -380
-499 -499 -624 -724 -991 -1549 -1101 -2480 -41 -341 -45 -844 -10 -1165 104
-952 444 -1756 1055 -2490 115 -138 440 -466 580 -586 817 -698 1749 -1065
2819 -1110 625 -27 1140 28 1659 177 771 221 1472 651 2066 1265 670 694 1092
1518 1245 2432 55 331 65 458 64 857 -1 201 -7 417 -13 480 -92 907 -382 1666
-895 2345 -403 532 -948 1015 -1496 1327 -561 320 -1129 499 -1815 574 -167
19 -786 27 -950 13z m-1250 -519 c-4 -6 -25 -20 -48 -31 -23 -12 -109 -62
-192 -112 -811 -486 -1428 -1053 -1870 -1717 -132 -198 -240 -384 -316 -545
-62 -131 -161 -366 -183 -433 -31 -91 -27 -52 10 98 169 701 493 1258 1040
1790 417 406 828 667 1414 901 165 66 153 62 145 49z m110 -318 c-6 -5 -89
-55 -185 -112 -926 -547 -1606 -1234 -2001 -2021 -68 -137 -113 -242 -180
-424 -27 -71 -48 -125 -49 -118 0 28 43 230 75 346 136 499 407 952 825 1381
426 437 836 706 1390 912 117 44 142 51 125 36z m125 -296 c0 -3 -35 -24 -77
-47 -43 -24 -130 -74 -193 -113 -986 -599 -1601 -1307 -1891 -2176 -32 -96
-59 -170 -59 -165 0 26 34 202 60 305 138 548 429 1021 893 1451 351 325 675
526 1122 695 154 59 145 56 145 50z m120 -310 c0 -2 -28 -20 -62 -41 -396
-242 -770 -529 -1062 -815 -437 -428 -705 -848 -860 -1350 -41 -131 -41 -96 1
103 79 382 232 720 474 1043 103 138 416 449 559 556 265 197 484 322 790 448
139 57 160 64 160 56z m95 -325 c-16 -10 -84 -48 -150 -85 -162 -92 -437 -275
-565 -379 -554 -447 -877 -933 -1046 -1572 l-34 -130 6 100 c14 240 86 511
198 740 120 246 274 453 512 685 291 284 569 462 949 606 149 57 178 65 130
35z m144 -295 c-2 -2 -67 -43 -144 -91 -303 -189 -548 -379 -774 -599 -172
-169 -277 -292 -380 -446 -142 -212 -237 -421 -296 -655 -18 -71 -34 -125 -34
-120 -1 6 8 69 18 141 51 344 158 637 328 894 60 91 109 148 237 276 136 135
183 175 301 253 165 109 383 220 585 296 131 49 171 62 159 51z m78 -339
c-349 -215 -591 -399 -802 -612 -323 -324 -496 -636 -566 -1020 l-19 -100 5
112 c11 269 112 576 269 818 198 303 505 569 834 723 72 33 315 121 337 121 6
0 -21 -19 -58 -42z m123 -281 c0 -2 -30 -21 -67 -42 -163 -90 -354 -232 -505
-376 -337 -321 -546 -684 -602 -1043 l-14 -90 -1 155 c-3 396 108 672 373 935
134 132 257 218 451 315 168 84 365 163 365 146z m160 -300 c0 -2 -37 -25 -83
-50 -298 -162 -546 -377 -698 -604 -137 -204 -185 -334 -247 -667 -8 -40 -10
-17 -11 121 -1 185 11 278 53 400 114 335 398 586 864 760 131 48 122 45 122
40z m880 -120 c199 -27 340 -70 503 -153 429 -219 724 -610 819 -1085 29 -148
31 -431 4 -577 -54 -295 -193 -560 -408 -786 -231 -242 -489 -388 -808 -456
-143 -31 -453 -34 -605 -5 -313 58 -563 193 -801 430 -284 285 -424 593 -450
991 -8 120 10 347 36 466 94 432 402 819 816 1027 151 76 376 141 539 155 98
9 259 5 355 -7z m-4150 -470 c0 -3 -4 -8 -10 -11 -5 -3 -10 -1 -10 4 0 6 5 11
10 11 6 0 10 -2 10 -4z m5656 -1821 c-9 -304 -84 -484 -277 -671 -171 -165
-413 -285 -764 -380 -11 -3 25 19 81 49 234 127 383 234 529 382 117 119 204
241 276 390 67 139 102 252 126 413 l18 115 8 -69 c5 -38 6 -141 3 -229z m311
68 c-8 -206 -55 -390 -147 -574 -151 -299 -439 -573 -774 -733 -115 -56 -335
-140 -343 -132 -2 2 38 28 89 56 51 29 145 88 208 130 567 380 866 787 947
1290 10 60 20 110 22 110 2 0 1 -66 -2 -147z m623 -214 c-42 -391 -177 -722
-417 -1019 -88 -109 -314 -324 -434 -414 -134 -101 -312 -206 -463 -274 -123
-56 -306 -125 -312 -119 -2 2 42 30 99 62 598 344 1040 751 1291 1189 104 181
192 420 226 614 7 39 15 70 17 68 2 -2 -1 -50 -7 -107z m-354 -82 c-35 -170
-84 -317 -161 -475 -93 -191 -167 -295 -325 -452 -230 -230 -440 -357 -799
-481 -63 -22 -116 -37 -118 -35 -3 3 26 24 64 47 602 378 1020 785 1227 1194
53 106 111 254 122 310 4 22 9 35 11 29 2 -7 -7 -68 -21 -137z m649 -107
c-117 -517 -345 -950 -685 -1303 -63 -65 -150 -148 -195 -184 -230 -185 -507
-330 -805 -421 -154 -47 -161 -45 -45 11 457 223 862 557 1224 1012 225 282
381 564 484 872 22 68 42 121 43 120 2 -1 -8 -50 -21 -107z m335 -49 c-119
-765 -543 -1357 -1321 -1846 -129 -81 -656 -355 -683 -355 -6 0 52 37 129 83
382 227 723 485 991 752 249 248 448 525 640 890 60 116 192 414 230 523 24
67 30 50 14 -47z m316 -158 c-78 -527 -354 -1029 -826 -1503 -364 -366 -815
-657 -1265 -818 -202 -72 -204 -71 -51 13 493 269 832 519 1192 879 324 326
543 623 727 993 75 150 166 362 208 485 13 37 25 65 27 63 2 -2 -4 -52 -12
-112z m294 -208 c-161 -601 -461 -1103 -931 -1560 -313 -304 -622 -521 -1014
-711 -150 -72 -405 -179 -475 -199 -14 -4 41 31 121 78 933 542 1606 1168
2024 1880 69 119 220 429 266 549 19 48 35 85 37 83 2 -2 -11 -56 -28 -120z
m296 -151 c-166 -554 -382 -978 -702 -1378 -372 -464 -933 -871 -1545 -1122
-143 -58 -380 -146 -385 -142 -1 2 56 35 129 73 643 341 1205 788 1694 1349
223 254 450 574 593 836 73 133 200 400 235 493 34 91 25 39 -19 -109z"/>
<path d="M4969 5639 l-104 -242 -228 -38 c-126 -21 -230 -39 -232 -41 -2 -2
70 -87 160 -188 101 -112 165 -192 165 -205 0 -11 -16 -126 -35 -255 -20 -128
-34 -239 -33 -246 2 -7 86 38 207 112 l204 124 31 -19 c181 -111 382 -229 384
-226 3 3 -63 465 -72 507 -3 12 54 82 164 205 93 103 167 189 165 191 -1 2
-97 19 -211 38 -115 19 -219 36 -230 39 -17 4 -41 52 -119 232 -54 126 -101
234 -105 241 -4 9 -48 -83 -111 -229z"/>
</g>
</svg>
